# xmcd
#
# Track frame offsets:
# 150
# 19410
# 40265
# 57667
# 59085
# 60395
#
# Disc length: 822 seconds
#
#
# Revision: 0
# Processed by: cddbd v1.5.2PL0 Copyright (c) Steve Scherf et al.
# Submitted via: FreeRIP 2.96 
#
DISCID=57033406
DTITLE=janet jackson - Someone To Call My Lover(US CD5" promo)
DYEAR=2001
DGENRE=R&B
TTITLE0=Someone To Call My Lover(single edit)
TTITLE1=Someone To Call My Lover(so so def remix)
TTITLE2=Someone To Call My Lover(hex hector/mac quayle radio mix)
TTITLE3=Someone To Call My Lover(call out hook#1)
TTITLE4=Someone To Call My Lover(call out hook#2)
TTITLE5=Someone To Call My Lover(call out hook#3)
EXTD=
EXTT0=
EXTT1=
EXTT2=
EXTT3=
EXTT4=
EXTT5=
PLAYORDER=
